<?xml version="1.0" encoding="utf-8"?>
<!-- Generator: Adobe Illustrator 21.0.1, SVG Export Plug-In . SVG Version: 6.00 Build 0)  -->
<svg version="1.1" id="Layer_1" xmlns="http://www.w3.org/2000/svg" xmlns:xlink="http://www.w3.org/1999/xlink" x="0px" y="0px"
	 viewBox="0 0 249.8 249.8" style="enable-background:new 0 0 249.8 249.8;" xml:space="preserve">
<style type="text/css">
	.st0{fill:#677387;}
	.st1{fill:#EDE3D3;}
</style>
<circle class="st0" cx="124.9" cy="124.9" r="89.2"/>
<path class="st1" d="M65.2,162V87.6h35.4c3.8,0,7.5,0.4,11.1,1.7c6.2,2.2,10.2,6.3,11.6,12.8c1,4.9,0.8,9.7-1.8,14.2
	c-1.2,2.2-3.2,3.8-5.4,5l-1.2,0.7c1.2,0.7,2.4,1.1,3.4,1.8c3.8,2.2,6.2,5.6,7.1,9.8c2,8.3,0.3,15.7-5.8,22
	c-3.2,3.3-7.1,5.1-11.6,5.7c-3.2,0.4-6.4,0.7-9.5,0.7c-10.7,0.1-21.4,0.1-32,0.1C66,162,65.6,162,65.2,162L65.2,162z M82.4,129.5
	v19.7c6,0,11.8,0.1,17.7-0.1c1.4,0,3-0.4,4.3-0.8c3-1,4.9-3.1,5.6-6.2c0.5-2.1,0.7-4.3,0.1-6.4c-1.1-4.1-4.2-5.8-8-6.1
	c-6.5-0.4-13.1-0.3-19.6-0.3C82.6,129.4,82.5,129.4,82.4,129.5L82.4,129.5z M82.4,116.9c0.3,0.1,0.5,0.1,0.8,0.1
	c4.9,0,9.9,0.1,14.8,0c1.2,0,2.6-0.2,3.9-0.4c1.7-0.3,3.4-0.8,4.7-1.9c2-1.6,2.4-3.9,2.4-6.3c0-4.1-1.8-6.3-5.8-7.1
	c-1.7-0.4-3.4-0.6-5.1-0.7h-15l-0.5,0.1C82.4,106,82.4,111.4,82.4,116.9z M184.6,137H146c0.1,2.6,0.5,4.9,1.8,7.1
	c2,3.7,5.3,5.5,9.4,6c2.5,0.3,4.9,0.2,7.1-0.7c2-0.8,3.7-2,4.8-4c0.5-0.9,1.1-1.1,2-1.1c3.9,0.1,7.9,0.1,11.6,0.1h1.1
	c-0.4,2.9-1.6,5.2-3.2,7.3c-3.3,4.3-7.3,7.4-12.5,8.8c-10.1,2.6-19.6,1.5-28.1-5.2c-4.3-3.4-6.6-8-7.5-13.4c-1.2-6.7-1.1-13.5,1-20
	c2.5-7.4,7.4-12.5,14.8-15.1c7.3-2.5,14.6-2.2,21.7,0.7c4.3,1.7,7.5,4.7,10.1,8.5c2.6,4.1,4.1,8.6,4.3,13.5
	C184.6,131.8,184.6,134.3,184.6,137L184.6,137z M170.2,127.8c-0.2-6.4-4.3-11.1-11.7-11.2c-7.5-0.2-11.3,4.9-12,11.2H170.2z
	 M173.2,98.1h-29.8v-7.3h29.8V98.1z"/>
</svg>
