<svg xmlns="http://www.w3.org/2000/svg" viewBox="0 0 450 450" enable-background="new 0 0 450 450"><style type="text/css">.st0{fill:#FFFFFF;}</style><circle class="st0" cx="225" cy="225" r="225"/><path d="M323.1 282.5c-.9 2.7-2.1 5.6-3.7 7.2-1.5 1.5-4 .5-4.2-1.6-.7-6-3.7-22.7-16.3-39.6-7.8 19.8-17.9 29.4-17.9 29.4-7 7-13.1 11.1-18.5 12.7-11.7 3.5-24.2-3.6-26.6-15.7-3.3-16.9 5.6-20 5.6-20 1.7 17 10.1 20.4 10.1 20.4 15 8.7 28.3-16.4 28.3-16.4 4.1-7.3 7.3-14.2 9.9-20.7-10.6-10.3-25.5-19.9-46.7-26.2 0 0-11.9-3.6-6.5-7 1.7-1.1 3.9-1.4 5.9-.9 7.6 1.7 30.9 8.1 51 23.2 13-43.9-7.5-66.1-13.8-71.7-1.8-1.6-3.4-3.3-4.7-5.3-6.2-9.5 5.4-5.9 5.4-5.9 10 2.8 16.5 11.8 20.7 20.5 4.5 9.5 6.7 19.9 6.8 30.5.2 15.7-1.8 29-4.8 40.1 9 8.9 16.5 20.1 20.2 34 1.3 4.3 1.2 8.8-.2 13zM341.7 223.5c.9-.8 2.3-.6 3.1.3 1.4 1.7 2.3 5.5-2.2 13.9-3 5.8-5.4 11.9-6.6 18.3-1.8 9.7-1 19.3 13.5 8.3 0 0 5.9-3.3 12.8-40 .4-2 2.2-3.4 4.2-3.1 3.6.5 8.1 4.3 4 21.5 0 0-7.5 32.3 8.5 22.1 0 0-4.4 14.3-12.8 14.3 0 0-4.2.4-8.3-8.5 0 0-11.1 16.7-23.2 9.4 0 0-18.4-10.5.8-43.8 0 0-10.2-.3-13-7.1 0 0 14.2-1.7 19.2-5.6zM391.8 284.5v.1c-.5 4-2.2 8.5-5.9 13.3 0 .1-.1.1-.1.1-5.5 6.6-15.5 13.3-32.6 19.2-2.3.8-4.8 1.6-7.4 2.4-.1 0-14.2 3.6-14.9 3.7-30.5 4.8-56.6 2.7-58 2.5h-.1c-37.8-1.4-82.5-10.3-122.7-37.9-4.6-3.2-9.2-6.6-13.7-10.3-1.3-1.1-2.6-2.2-4-3.3-2.5-2.1-5-4.3-7.4-6.5-7-6.2-13.7-12.4-18.1-16.5.5 4.1 6.2 57.4-27.5 57.3-4.3.1-8.7-1.1-12.3-3.7-12.8-10.9-8.3-23.4-8.1-24.1 10.4 17.9 21 16 23.8 15 7.3-2.5 8.9-9.8 9.2-10.4 6-14.6 3.1-42 3.1-42v-.6s-8.9-5.9-10.3-7.5c-1.2-1.3-1.9-2.3-1.9-4.3 0-5 4.1-6.7 7.3-6.7 2 0 3.9.7 5.4 1.9 0-1.4.1-3.5.1-4.2 1.5-49.3-5.1-81-5.1-81-3.9-9.1-8.3-9.2-8.4-9.2-8.4-4.9-1.8-7.8-1.8-7.8 23.4-3.3 25 23.5 25 23.5 2.7 17.8 2.3 47.4 1 74.6 0 1.2-.1 2.4-.2 3.6 1.5-1.2 2.9-2.4 4.2-3.5 8.4-7.5 14.2-14.9 18.2-22 6.1-10.9 7.7-20.8 7.8-28.3 0-5.3-.7-9.4-1.3-11.7-.5-2.3-.9-4.6-.8-6.9.1-4.3 1.3-5.5 2.7-5.4h.5c2.1.5 4.5 3.6 4.5 3.6 6.5 7.9 6.8 18.8 5.2 28.2-1.7 10.2-5.8 19.9-11.6 28.5-2.1 3.2-4.3 6.1-6.4 8.9-1.4 1.8-2.8 3.6-4.3 5.2-2.2 2.6-4.4 5-6.6 7.2-.3.3-.7.8-1.2 1.3l-.1.1c-.1.1-.3.3-.6.7-1.9 2.2-4.2 5-5.5 6.1 1.2 1.6 2.8 3.6 4.8 5.9l.1.1.8.9c11.3 12.6 34 33.3 63.8 48.3l1.5.7c3.3 1.6 6.7 3.2 10.2 4.6 35.4 14.9 80.6 24 134.9 15.3 0 0 66.9-12.7 57.8-47.8l.1.1.1.1.1.1s.1.1.1.2c1.8 1.4 7.4 8.9 6.6 18.3zM192.1 253.1c-1.1 6.3-9.3 11.9-9.3 11.9-8.1 5.2-14.8-.2-16.7-1.9 2.1-1.1 3.4-2.1 3.6-2.2h.1c11.8-7.1 20.2-18.6 21.1-29.2.5-5.4-.9-10.6-3.4-13.3-4.7-5.1-13.6-4.6-19.5-.9-5.6 3.5-9.4 9.1-11.8 13.6-2 3.8-3.3 7.9-4 12.1-1.1 6.7-.8 12.2.3 16.6-2.7.6-5.6.9-8.7 1.1l-3 .1c.3.5.7 1 1 1.4l.3.3c.3.3.6.7 1 1 1.1 1 2.6 2 4.6 2.7h.1c2 .7 4.5 1 7.6.6 7 11.6 23.8 14.6 33.4 4.7 7.3-7.6 3.3-18.6 3.3-18.6zm-30-2.4c.1-5.5 1.9-14 8.8-21.3 3.6-3.8 7.2-4.2 9-2.4 3.6 3.6-1.3 13.3-1.3 13.3 0 .1-.1.3-.3.7-1 2.2-6.7 10.2-15.4 15.2-.6-2.2-.8-4.2-.8-5.5z"/></svg>