<?xml version="1.0" encoding="utf-8"?>
<!-- Generator: Adobe Illustrator 20.1.0, SVG Export Plug-In . SVG Version: 6.00 Build 0)  -->
<svg version="1.1" id="Layer_1" xmlns="http://www.w3.org/2000/svg" xmlns:xlink="http://www.w3.org/1999/xlink" x="0px" y="0px"
	 viewBox="0 0 450 450" style="enable-background:new 0 0 450 450;" xml:space="preserve">
<style type="text/css">
	.st0{fill:#FFFFFF;}
</style>
<circle class="st0" cx="225" cy="225" r="225"/>
<g>
	<path d="M323.1,282.5c-0.9,2.7-2.1,5.6-3.7,7.2c-1.5,1.5-4,0.5-4.2-1.6c-0.7-6-3.7-22.7-16.3-39.6c-7.8,19.8-17.9,29.4-17.9,29.4
		c-7,7-13.1,11.1-18.5,12.7c-11.7,3.5-24.2-3.6-26.6-15.7c-3.3-16.9,5.6-20,5.6-20c1.7,17,10.1,20.4,10.1,20.4
		c15,8.7,28.3-16.4,28.3-16.4c4.1-7.3,7.3-14.2,9.9-20.7c-10.6-10.3-25.5-19.9-46.7-26.2c0,0-11.9-3.6-6.5-7
		c1.7-1.1,3.9-1.4,5.9-0.9c7.6,1.7,30.9,8.1,51,23.2c13-43.9-7.5-66.1-13.8-71.7c-1.8-1.6-3.4-3.3-4.7-5.3c-6.2-9.5,5.4-5.9,5.4-5.9
		c10,2.8,16.5,11.8,20.7,20.5c4.5,9.5,6.7,19.9,6.8,30.5c0.2,15.7-1.8,29-4.8,40.1c9,8.9,16.5,20.1,20.2,34
		C324.6,273.8,324.5,278.3,323.1,282.5z"/>
	<path d="M341.7,223.5c0.9-0.8,2.3-0.6,3.1,0.3c1.4,1.7,2.3,5.5-2.2,13.9c-3,5.8-5.4,11.9-6.6,18.3c-1.8,9.7-1,19.3,13.5,8.3
		c0,0,5.9-3.3,12.8-40c0.4-2,2.2-3.4,4.2-3.1c3.6,0.5,8.1,4.3,4,21.5c0,0-7.5,32.3,8.5,22.1c0,0-4.4,14.3-12.8,14.3
		c0,0-4.2,0.4-8.3-8.5c0,0-11.1,16.7-23.2,9.4c0,0-18.4-10.5,0.8-43.8c0,0-10.2-0.3-13-7.1C322.5,229.1,336.7,227.4,341.7,223.5z"/>
	<path d="M391.8,284.5c0,0,0,0.1,0,0.1c-0.5,4-2.2,8.5-5.9,13.3c0,0.1-0.1,0.1-0.1,0.1c-5.5,6.6-15.5,13.3-32.6,19.2
		c-2.3,0.8-4.8,1.6-7.4,2.4c-0.1,0-14.2,3.6-14.9,3.7c-30.5,4.8-56.6,2.7-58,2.5c0,0-0.1,0-0.1,0c-37.8-1.4-82.5-10.3-122.7-37.9
		c-4.6-3.2-9.2-6.6-13.7-10.3c-1.3-1.1-2.6-2.2-4-3.3c-2.5-2.1-5-4.3-7.4-6.5c-7-6.2-13.7-12.4-18.1-16.5
		c0.5,4.1,6.2,57.4-27.5,57.3v0c-4.3,0.1-8.7-1.1-12.3-3.7c-12.8-10.9-8.3-23.4-8.1-24.1c0,0,0,0,0,0c10.4,17.9,21,16,23.8,15
		c7.3-2.5,8.9-9.8,9.2-10.4c6-14.6,3.1-42,3.1-42v-0.6c0,0-8.9-5.9-10.3-7.5c-1.2-1.3-1.9-2.3-1.9-4.3c0-5,4.1-6.7,7.3-6.7
		c2,0,3.9,0.7,5.4,1.9c0,0,0,0,0,0c0-1.4,0.1-3.5,0.1-4.2c1.5-49.3-5.1-81-5.1-81c-3.9-9.1-8.3-9.2-8.4-9.2
		c-8.4-4.9-1.8-7.8-1.8-7.8c23.4-3.3,25,23.5,25,23.5c2.7,17.8,2.3,47.4,1,74.6c0,1.2-0.1,2.4-0.2,3.6c1.5-1.2,2.9-2.4,4.2-3.5
		c8.4-7.5,14.2-14.9,18.2-22c6.1-10.9,7.7-20.8,7.8-28.3c0-5.3-0.7-9.4-1.3-11.7c-0.5-2.3-0.9-4.6-0.8-6.9c0.1-4.3,1.3-5.5,2.7-5.4
		c0.1,0,0.2,0,0.3,0c0.1,0,0.1,0,0.2,0c2.1,0.5,4.5,3.6,4.5,3.6c6.5,7.9,6.8,18.8,5.2,28.2c-1.7,10.2-5.8,19.9-11.6,28.5
		c-2.1,3.2-4.3,6.1-6.4,8.9c-1.4,1.8-2.8,3.6-4.3,5.2c-2.2,2.6-4.4,5-6.6,7.2c-0.3,0.3-0.7,0.8-1.2,1.3c0,0,0,0,0,0l-0.1,0.1
		c-0.1,0.1-0.3,0.3-0.6,0.7c-1.9,2.2-4.2,5-5.5,6.1c1.2,1.6,2.8,3.6,4.8,5.9l0.1,0.1v0c0.3,0.3,0.5,0.6,0.8,0.9
		c11.3,12.6,34,33.3,63.8,48.3c0.5,0.2,1,0.5,1.5,0.7c3.3,1.6,6.7,3.2,10.2,4.6c35.4,14.9,80.6,24,134.9,15.3
		c0,0,66.9-12.7,57.8-47.8c0,0,0,0,0.1,0.1c0,0,0.1,0.1,0.1,0.1c0,0,0.1,0.1,0.1,0.1c0,0,0.1,0.1,0.1,0.2
		C387,267.6,392.6,275.1,391.8,284.5z"/>
	<path d="M192.1,253.1c-1.1,6.3-9.3,11.9-9.3,11.9c-8.1,5.2-14.8-0.2-16.7-1.9c2.1-1.1,3.4-2.1,3.6-2.2c0,0,0,0,0,0c0,0,0,0,0.1,0
		c11.8-7.1,20.2-18.6,21.1-29.2c0.5-5.4-0.9-10.6-3.4-13.3c-4.7-5.1-13.6-4.6-19.5-0.9c-5.6,3.5-9.4,9.1-11.8,13.6
		c-2,3.8-3.3,7.9-4,12.1c-1.1,6.7-0.8,12.2,0.3,16.6c-2.7,0.6-5.6,0.9-8.7,1.1c-1,0-2,0.1-3,0.1c0.3,0.5,0.7,1,1,1.4
		c0.1,0.1,0.2,0.2,0.3,0.3c0.3,0.3,0.6,0.7,1,1c1.1,1,2.6,2,4.6,2.7c0,0,0.1,0,0.1,0c2,0.7,4.5,1,7.6,0.6c7,11.6,23.8,14.6,33.4,4.7
		C196.1,264.1,192.1,253.1,192.1,253.1z M162.1,250.7c0.1-5.5,1.9-14,8.8-21.3c3.6-3.8,7.2-4.2,9-2.4c3.6,3.6-1.3,13.3-1.3,13.3
		c0,0.1-0.1,0.3-0.3,0.7c-1,2.2-6.7,10.2-15.4,15.2C162.3,254,162.1,252,162.1,250.7z"/>
</g>
</svg>
