<?xml version="1.0" encoding="utf-8"?>
<!-- Generator: Adobe Illustrator 21.0.1, SVG Export Plug-In . SVG Version: 6.00 Build 0)  -->
<svg version="1.1" id="Layer_1" xmlns="http://www.w3.org/2000/svg" xmlns:xlink="http://www.w3.org/1999/xlink" x="0px" y="0px"
	 viewBox="0 0 249.8 249.8" style="enable-background:new 0 0 249.8 249.8;" xml:space="preserve">
<style type="text/css">
	.st0{fill:#748DA3;}
	.st1{fill:#FFFFFF;}
</style>
<circle class="st0" cx="125.9" cy="124.9" r="89.2"/>
<path class="st1" d="M119.6,140.6c-0.8,2.8-1.3,5.5-2.1,8.1c-1.3,5.1-2.4,10.3-5.1,14.9c-2.1,3.5-4.5,7-6.8,10.4
	c-0.3,0.3-0.8,0.7-1.3,0.6c-0.3-0.1-0.6-0.7-0.7-1.1c-1-7.7-1.3-15.5,0.7-23.2c2.4-9.4,4.5-18.8,6.7-28.1c0.2-0.6-0.1-1.3-0.3-2
	c-1.6-4.7-1.9-9.4-0.3-14.2c0.8-2.4,2.1-4.6,4.1-6.3c2.5-2.1,5.4-2.9,8.5-1.9c3.5,1,5.6,4,5.3,8.3c-0.3,3-1,6.1-1.7,9.1
	c-0.9,3.6-2.1,7.2-3.1,10.9c-1.8,6.3,3.1,11.6,9.6,11.1c4.1-0.3,7.2-2.4,9.8-5.6c2.9-3.5,4.5-7.4,5.6-11.6
	c1.5-5.7,2.2-11.5,1.2-17.4c-1.4-8.3-6.3-13.5-14.2-15.9c-6.1-1.9-12.3-1.8-18.4,0.2c-12,3.7-19.5,15.5-18.2,28.1
	c0.3,3.1,1.4,6.1,3.5,8.4c0.9,1,1.3,2.2,0.8,3.6c-0.4,1.4-0.7,2.8-1,4.2c-0.5,1.7-1.6,2.4-3.3,1.7c-4.2-1.7-7.2-4.8-8.9-8.8
	c-4.5-10.8-3.4-21.1,2.8-30.8s15.1-14.9,26.2-17c5.4-1,10.8-1.2,16.2-0.3c7.4,1.2,14,4.2,19.4,9.4c6.5,6.3,10,14.1,9.9,23.2
	c-0.1,6.4-1,12.8-3.5,18.8c-3.7,9-9.7,15.9-19.4,18.9c-4.3,1.3-8.7,1.7-13,0.4c-3.3-0.9-6.1-2.5-8.3-5.3
	C120,141.1,119.8,140.9,119.6,140.6L119.6,140.6z"/>
</svg>
