<?xml version="1.0" encoding="utf-8"?>
<!-- Generator: Adobe Illustrator 21.0.1, SVG Export Plug-In . SVG Version: 6.00 Build 0)  -->
<svg version="1.1" id="Layer_1" xmlns="http://www.w3.org/2000/svg" xmlns:xlink="http://www.w3.org/1999/xlink" x="0px" y="0px"
	 viewBox="0 0 249.8 249.8" style="enable-background:new 0 0 249.8 249.8;" xml:space="preserve">
<style type="text/css">
	.st0{fill:#748DA3;}
	.st1{fill:#FFFFFF;}
</style>
<g>
	<circle class="st0" cx="124.9" cy="124.9" r="89.2"/>
	<path class="st1" d="M80.4,117.7c-1.6-1.8-3.1-3.6-4.6-5.5c0.4-0.3,0.7-0.6,1.1-0.9c5.8-4.7,11.6-9.5,17.5-14.2
		c2.5-2,5.2-3.6,8.3-4.6c5.3-1.7,10.6,0.4,13.3,5.3c1.7,3,2.4,6.3,3,9.6c1,5.4,1.8,10.8,2.8,16.2c0.8,4.1,1.8,8.1,3.3,12
		c0.7,1.6,1.6,3.2,2.6,4.7c1.2,1.7,2.6,1.7,4.3,0.6c2.2-1.5,3.8-3.7,5.4-5.8c2.8-3.7,5.2-7.6,7.1-11.9c1-2.1,1.5-4.3,1.4-6.7
		c-0.2-3.6-2.3-5.2-5.4-5.5c-2.5-0.3-4.9,0.2-7.3,0.9c-0.4,0.1-0.7,0.2-1.2,0.4c0.3-0.8,0.5-1.5,0.8-2.3c2-5.1,4.6-9.8,8.9-13.4
		c3.8-3.2,8.1-4.9,13-5.5c2.7-0.3,5.3-0.3,7.9,0c5.3,0.7,9.3,4.2,10.6,9.5c1.6,6.3,0.8,12.5-1.7,18.4c-2.7,6.4-6.4,12.1-10.5,17.7
		c-5.6,7.6-11.6,14.9-18.5,21.3c-3.8,3.6-7.8,6.8-12.4,9.2c-2.9,1.5-5.8,2.5-9.1,2.8c-3.8,0.3-6.9-1.2-9.3-4
		c-3.6-4.1-5.7-9-7.3-14.2c-2.6-9-5.3-17.9-8.1-26.9c-1-3.2-2.3-6.4-4.4-9.1c-0.5-0.6-1-1.1-1.6-1.6c-1.2-1-2.5-1.2-3.9-0.4
		c-1.7,1-3.4,2-5,3C81.2,117.2,80.8,117.4,80.4,117.7z"/>
</g>
</svg>
