<?xml version="1.0" encoding="utf-8"?>
<!-- Generator: Adobe Illustrator 21.0.1, SVG Export Plug-In . SVG Version: 6.00 Build 0)  -->
<svg version="1.1" id="Layer_1" xmlns="http://www.w3.org/2000/svg" xmlns:xlink="http://www.w3.org/1999/xlink" x="0px" y="0px"
	 viewBox="0 0 249.8 249.8" style="enable-background:new 0 0 249.8 249.8;" xml:space="preserve">
<style type="text/css">
	.st0{fill:#748DA3;}
	.st1{fill:#FFFFFF;}
</style>
<circle class="st0" cx="125.9" cy="124.4" r="88.7"/>
<path class="st1" d="M72,163.6V96.3h32c3.4,0,6.8,0.4,10,1.5c5.6,2,9.2,5.7,10.5,11.6c0.9,4.4,0.7,8.8-1.6,12.8
	c-1.1,2-2.9,3.4-4.9,4.5l-1.1,0.6c1.1,0.6,2.2,1,3.1,1.6c3.4,2,5.6,5.1,6.4,8.9c1.8,7.5,0.3,14.2-5.2,19.9c-2.9,3-6.4,4.6-10.5,5.2
	c-2.9,0.4-5.8,0.6-8.6,0.6c-9.7,0.1-19.3,0.1-28.9,0.1C72.7,163.6,72.3,163.6,72,163.6L72,163.6z M87.5,134.2V152
	c5.4,0,10.7,0.1,16-0.1c1.3,0,2.7-0.4,3.9-0.7c2.7-0.9,4.4-2.8,5.1-5.6c0.5-1.9,0.6-3.9,0.1-5.8c-1-3.7-3.8-5.2-7.2-5.5
	c-5.9-0.4-11.8-0.3-17.7-0.3C87.7,134.1,87.6,134.1,87.5,134.2L87.5,134.2z M87.5,122.8c0.3,0.1,0.5,0.1,0.7,0.1c4.4,0,9,0.1,13.4,0
	c1.1,0,2.4-0.2,3.5-0.4c1.5-0.3,3.1-0.7,4.2-1.7c1.8-1.4,2.2-3.5,2.2-5.7c0-3.7-1.6-5.7-5.2-6.4c-1.5-0.4-3.1-0.5-4.6-0.6H88.1
	l-0.5,0.1C87.5,112.9,87.5,117.8,87.5,122.8z M179.9,141H145c0.1,2.4,0.5,4.4,1.6,6.4c1.8,3.3,4.8,5,8.5,5.4
	c2.3,0.3,4.4,0.2,6.4-0.6c1.8-0.7,3.3-1.8,4.3-3.6c0.5-0.8,1-1,1.8-1c3.5,0.1,7.1,0.1,10.5,0.1h1c-0.4,2.6-1.4,4.7-2.9,6.6
	c-3,3.9-6.6,6.7-11.3,8c-9.1,2.4-17.7,1.4-25.4-4.7c-3.9-3.1-6-7.2-6.8-12.1c-1.1-6.1-1-12.2,0.9-18.1c2.3-6.7,6.7-11.3,13.4-13.7
	c6.6-2.3,13.2-2,19.6,0.6c3.9,1.5,6.8,4.2,9.1,7.7c2.4,3.7,3.7,7.8,3.9,12.2C179.9,136.3,179.9,138.5,179.9,141L179.9,141z
	 M166.9,132.6c-0.2-5.8-3.9-10-10.6-10.1c-6.8-0.2-10.2,4.4-10.9,10.1H166.9z M169.6,105.8h-26.9v-6.6h26.9V105.8z"/>
</svg>
