<svg xmlns="http://www.w3.org/2000/svg" viewBox="0 0 249.8 249.8" enable-background="new 0 0 249.8 249.8"><style type="text/css">.st0{fill:#E22227;} .st1{fill:#FFFFFF;}</style><circle class="st0" cx="124.9" cy="124.9" r="89.2"/><path class="st1" d="M65.2 162v-74.4h35.4c3.8 0 7.5.4 11.1 1.7 6.2 2.2 10.2 6.3 11.6 12.8 1 4.9.8 9.7-1.8 14.2-1.2 2.2-3.2 3.8-5.4 5l-1.2.7c1.2.7 2.4 1.1 3.4 1.8 3.8 2.2 6.2 5.6 7.1 9.8 2 8.3.3 15.7-5.8 22-3.2 3.3-7.1 5.1-11.6 5.7-3.2.4-6.4.7-9.5.7-10.7.1-21.4.1-32 .1-.5-.1-.9-.1-1.3-.1zm17.2-32.5v19.7c6 0 11.8.1 17.7-.1 1.4 0 3-.4 4.3-.8 3-1 4.9-3.1 5.6-6.2.5-2.1.7-4.3.1-6.4-1.1-4.1-4.2-5.8-8-6.1-6.5-.4-13.1-.3-19.6-.3.1.1 0 .1-.1.2zm0-12.6c.3.1.5.1.8.1 4.9 0 9.9.1 14.8 0 1.2 0 2.6-.2 3.9-.4 1.7-.3 3.4-.8 4.7-1.9 2-1.6 2.4-3.9 2.4-6.3 0-4.1-1.8-6.3-5.8-7.1-1.7-.4-3.4-.6-5.1-.7h-15l-.5.1c-.2 5.3-.2 10.7-.2 16.2zm102.2 20.1h-38.6c.1 2.6.5 4.9 1.8 7.1 2 3.7 5.3 5.5 9.4 6 2.5.3 4.9.2 7.1-.7 2-.8 3.7-2 4.8-4 .5-.9 1.1-1.1 2-1.1 3.9.1 7.9.1 11.6.1h1.1c-.4 2.9-1.6 5.2-3.2 7.3-3.3 4.3-7.3 7.4-12.5 8.8-10.1 2.6-19.6 1.5-28.1-5.2-4.3-3.4-6.6-8-7.5-13.4-1.2-6.7-1.1-13.5 1-20 2.5-7.4 7.4-12.5 14.8-15.1 7.3-2.5 14.6-2.2 21.7.7 4.3 1.7 7.5 4.7 10.1 8.5 2.6 4.1 4.1 8.6 4.3 13.5.2 2.3.2 4.8.2 7.5zm-14.4-9.2c-.2-6.4-4.3-11.1-11.7-11.2-7.5-.2-11.3 4.9-12 11.2h23.7zm3-29.7h-29.8v-7.3h29.8v7.3z"/></svg>