<?xml version="1.0" encoding="utf-8"?>
<!-- Generator: Adobe Illustrator 21.0.1, SVG Export Plug-In . SVG Version: 6.00 Build 0)  -->
<svg version="1.1" id="Layer_1" xmlns="http://www.w3.org/2000/svg" xmlns:xlink="http://www.w3.org/1999/xlink" x="0px" y="0px"
	 viewBox="0 0 249.8 249.8" style="enable-background:new 0 0 249.8 249.8;" xml:space="preserve">
<style type="text/css">
	.st0{fill:#748DA3;}
	.st1{fill:none;}
	.st2{fill:#FFFFFF;}
</style>
<g>
	<circle class="st0" cx="124.9" cy="124.9" r="88.2"/>
	<g>
		<path class="st1" d="M144.6,160.4c5.2-0.2,9.2-1.9,12.1-5.3c2.4-2.9,3.7-6.5,3.7-10.7l0-0.9c0.1-12.4,0.2-25.2,0-37.8
			c-0.2-10.3-6-16.1-16.3-16.4c-9.4-0.3-18.6-0.3-28-0.3c-1.7,0-3.3,0-5,0c-3.6,0-6.9,0.3-9.9,0.9C94,91.4,89.5,97.1,89.4,105
			c-0.3,14.2-0.3,27,0,39.3c0.2,9.9,6.1,15.7,16.2,16.1c4.4,0.2,8.8,0.1,13.1,0.1c1.7,0,3.4,0,5,0v0h0.9c2,0,4,0,6,0
			C135.3,160.5,140,160.6,144.6,160.4z M144.3,96.5c1.2-1.2,2.8-1.9,4.5-2c1.8,0,3.4,0.6,4.6,1.7c1.2,1.1,1.8,2.7,1.8,4.4
			c0,3.5-2.7,6.4-6.2,6.5c0,0-0.1,0-0.1,0c-3.4,0-6.3-2.8-6.4-6.3C142.5,99.3,143.1,97.8,144.3,96.5z M124.9,148.9
			C124.9,148.9,124.9,148.9,124.9,148.9c-6.6,0-12.6-2.5-17.1-7.1c-4.5-4.5-6.9-10.6-6.9-17c0-6.5,2.6-12.5,7.1-17
			c4.5-4.5,10.6-7,17.1-6.9c6.5,0,12.5,2.6,17,7.1c4.5,4.6,6.9,10.6,6.8,17.1C148.8,138.5,138.2,148.9,124.9,148.9z"/>
		<path class="st1" d="M125.1,110.9c-3.9,0-7.4,1.4-10.1,4c-2.6,2.6-4.1,6.1-4.1,9.8c0,3.8,1.4,7.4,4,10c2.6,2.6,6.1,4.1,9.9,4.1
			c0,0,0,0,0,0c3.8,0,7.3-1.4,10-4.1c2.6-2.6,4.1-6.1,4.1-9.9C138.9,117.1,132.8,110.9,125.1,110.9z"/>
		<path class="st2" d="M170.8,107.2c-0.1-0.8-0.2-1.7-0.3-2.5c-0.2-1.9-0.5-3.8-0.9-5.7C166.8,87.4,158,80.1,146,79.4
			c-0.7,0-1.3-0.2-2-0.3c-0.3-0.1-0.7-0.1-1.1-0.2l-36.2,0c-0.8,0.1-1.5,0.2-2.3,0.3c-1.7,0.2-3.4,0.4-5,0.8
			c-11.7,2.5-19.3,11.6-20,23.7c0,0.7-0.1,1.3-0.3,2c-0.1,0.3-0.1,0.7-0.2,1.1v36l0,0.1c0.1,0.7,0.2,1.5,0.3,2.2
			c0.2,1.6,0.4,3.3,0.8,4.9c2.4,11.6,11.7,19.5,23.8,20.2c0.8,0,1.6,0.2,2.3,0.3c0.4,0.1,0.8,0.1,1.2,0.2l34.8,0
			c0.9-0.1,1.8-0.2,2.7-0.3c2-0.2,4-0.5,6-0.9c11.6-2.7,18.9-11.5,19.6-23.5c0.1-0.9,0.2-1.8,0.3-2.6c0.1-0.4,0.1-0.9,0.2-1.4
			L170.8,107.2z M124.6,160.5h-0.9v0c-1.7,0-3.3,0-5,0c-4.3,0-8.8,0.1-13.1-0.1c-10.1-0.3-16-6.2-16.2-16.1
			c-0.3-12.3-0.3-25.2,0-39.3c0.2-7.9,4.6-13.6,11.8-15.1c2.9-0.6,6.2-0.9,9.9-0.9c1.7,0,3.3,0,5,0c9.4,0,18.7,0.1,28,0.3
			c10.3,0.3,16.1,6.1,16.3,16.4c0.2,12.6,0.1,25.4,0,37.8l0,0.9c0,4.2-1.3,7.8-3.7,10.7c-2.9,3.4-6.9,5.2-12.1,5.3
			c-4.6,0.1-9.4,0.1-14,0.1C128.7,160.5,126.6,160.5,124.6,160.5z"/>
		<path class="st2" d="M148.9,125.1c0.1-6.5-2.4-12.5-6.8-17.1c-4.5-4.6-10.5-7.1-17-7.1c-6.4-0.1-12.5,2.4-17.1,6.9
			c-4.5,4.5-7.1,10.5-7.1,17c0,6.5,2.4,12.5,6.9,17c4.5,4.5,10.6,7.1,17.1,7.1c0,0,0.1,0,0.1,0C138.2,148.9,148.8,138.5,148.9,125.1
			z M138.9,124.9c0,3.8-1.4,7.3-4.1,9.9c-2.6,2.6-6.2,4.1-10,4.1c0,0,0,0,0,0c-3.8,0-7.3-1.5-9.9-4.1c-2.6-2.6-4.1-6.2-4-10
			c0-3.8,1.5-7.3,4.1-9.8c2.7-2.6,6.2-4.1,10.1-4C132.8,110.9,138.9,117.1,138.9,124.9z"/>
		<path class="st2" d="M148.9,107.2c0,0,0.1,0,0.1,0c3.5-0.1,6.2-3,6.2-6.5c0-1.7-0.7-3.3-1.8-4.4c-1.2-1.2-2.8-1.7-4.6-1.7
			c-1.7,0-3.3,0.7-4.5,2c-1.2,1.2-1.8,2.8-1.8,4.4C142.6,104.4,145.5,107.2,148.9,107.2z"/>
	</g>
</g>
</svg>
