<?xml version="1.0" encoding="utf-8"?>
<!-- Generator: Adobe Illustrator 21.0.1, SVG Export Plug-In . SVG Version: 6.00 Build 0)  -->
<svg version="1.1" id="Layer_1" xmlns="http://www.w3.org/2000/svg" xmlns:xlink="http://www.w3.org/1999/xlink" x="0px" y="0px"
	 viewBox="0 0 249.8 249.8" style="enable-background:new 0 0 249.8 249.8;" xml:space="preserve">
<style type="text/css">
	.st0{fill:#FFFFFF;}
	.st1{fill:#F4DEE2;}
</style>
<circle class="st0" cx="124.9" cy="124.9" r="89.2"/>
<path class="st1" d="M161.1,178.6H89c-9.7,0-17.8-8.1-17.8-17.8V93c0-9.7,8.1-17.8,17.8-17.8h71.8c9.7,0,17.8,8.1,17.8,17.8v67.8
	C178.6,170.5,170.9,178.6,161.1,178.6L161.1,178.6z"/>
<g>
	<g>
		<rect x="69" y="102.4" class="st0" width="109.6" height="4"/>
	</g>
	<circle class="st0" cx="124.9" cy="128.6" r="28.5"/>
	<path class="st0" d="M158.5,84.9h13.1V98h-13.1V84.9z"/>
	<g>
		<path class="st0" d="M98.6,93.7h-4.4V72.8h4.4V93.7z M93.1,93.7h-4.4V72.8h4.4V93.7z M87.4,93.7H83V74.8h4.4V93.7z"/>
	</g>
</g>
<circle class="st1" cx="124.9" cy="128.6" r="20.1"/>
</svg>
