<?xml version="1.0" encoding="utf-8"?>
<!-- Generator: Adobe Illustrator 20.1.0, SVG Export Plug-In . SVG Version: 6.00 Build 0)  -->
<svg version="1.1" id="Layer_1" xmlns="http://www.w3.org/2000/svg" xmlns:xlink="http://www.w3.org/1999/xlink" x="0px" y="0px"
	 viewBox="0 0 249.8 249.8" style="enable-background:new 0 0 249.8 249.8;" xml:space="preserve">
<style type="text/css">
	.st0{fill:#E22227;}
	.st1{fill:#FFFFFF;}
	.st2{fill:none;stroke:#E22227;stroke-width:4.0459;stroke-miterlimit:10;}
	.st3{fill:none;stroke:#E22227;stroke-width:4.3716;stroke-miterlimit:10;}
</style>
<circle class="st0" cx="124.9" cy="124.9" r="89.2"/>
<path class="st1" d="M161.1,178.6H89c-9.7,0-17.8-8.1-17.8-17.8V93c0-9.7,8.1-17.8,17.8-17.8h71.8c9.7,0,17.8,8.1,17.8,17.8v67.8
	C178.6,170.5,170.9,178.6,161.1,178.6z"/>
<line class="st2" x1="69" y1="104.4" x2="178.6" y2="104.4"/>
<circle class="st0" cx="124.9" cy="128.6" r="28.5"/>
<circle class="st1" cx="124.9" cy="128.6" r="20.1"/>
<rect x="158.5" y="84.9" class="st0" width="13.1" height="13.1"/>
<g>
	<line class="st3" x1="85.2" y1="74.8" x2="85.2" y2="93.7"/>
	<line class="st3" x1="90.9" y1="72.8" x2="90.9" y2="93.7"/>
	<line class="st3" x1="96.4" y1="72.8" x2="96.4" y2="93.7"/>
</g>
</svg>
