<?xml version="1.0" encoding="utf-8"?>
<!-- Generator: Adobe Illustrator 21.0.1, SVG Export Plug-In . SVG Version: 6.00 Build 0)  -->
<svg version="1.1" id="Layer_1" xmlns="http://www.w3.org/2000/svg" xmlns:xlink="http://www.w3.org/1999/xlink" x="0px" y="0px"
	 viewBox="0 0 249.8 249.8" style="enable-background:new 0 0 249.8 249.8;" xml:space="preserve">
<style type="text/css">
	.st0{fill:#677387;}
	.st1{fill:#EDE3D3;}
</style>
<circle class="st0" cx="124.9" cy="124.9" r="89.2"/>
<path class="st1" d="M117.4,143.5c-0.9,3.3-1.6,6.5-2.5,9.6c-1.5,6-2.8,12.2-6,17.7c-2.5,4.2-5.3,8.3-8.1,12.3
	c-0.3,0.4-1,0.8-1.5,0.7c-0.4-0.1-0.7-0.8-0.8-1.3c-1.2-9.2-1.5-18.4,0.8-27.5c2.8-11.1,5.3-22.3,7.9-33.4c0.2-0.7-0.1-1.6-0.3-2.4
	c-1.9-5.6-2.2-11.2-0.4-16.8c1-2.9,2.5-5.5,4.9-7.5c3-2.5,6.4-3.4,10.1-2.3c4.1,1.2,6.6,4.8,6.3,9.8c-0.3,3.6-1.2,7.3-2,10.8
	c-1.1,4.3-2.5,8.6-3.7,12.9c-2.1,7.5,3.7,13.8,11.4,13.2c4.9-0.4,8.6-2.9,11.6-6.6c3.4-4.1,5.4-8.8,6.7-13.8
	c1.8-6.8,2.6-13.7,1.4-20.6c-1.7-9.8-7.5-16-16.9-18.9c-7.2-2.3-14.6-2.1-21.8,0.2C100.3,84,91.3,98,92.9,113
	c0.4,3.7,1.7,7.2,4.2,10c1.1,1.2,1.5,2.6,1,4.3s-0.8,3.3-1.2,5c-0.6,2-1.9,2.8-3.9,2c-5-2-8.5-5.7-10.6-10.5
	c-5.3-12.8-4-25,3.3-36.6s17.9-17.7,31.1-20.2c6.4-1.2,12.8-1.4,19.2-0.4c8.8,1.4,16.6,5,23,11.2c7.7,7.5,11.9,16.7,11.8,27.5
	c-0.1,7.6-1.2,15.2-4.2,22.3c-4.4,10.7-11.5,18.9-23,22.4c-5.1,1.5-10.3,2-15.4,0.5c-3.9-1.1-7.3-3-9.8-6.3
	C117.9,144.1,117.7,143.9,117.4,143.5L117.4,143.5z"/>
</svg>
