<svg xmlns="http://www.w3.org/2000/svg" viewBox="0 0 249.8 249.8" enable-background="new 0 0 249.8 249.8"><style type="text/css">.st0{fill:#E22227;} .st1{fill:#FFFFFF;}</style><circle class="st0" cx="124.9" cy="124.9" r="89.2"/><path class="st1" d="M117.4 143.5c-.9 3.3-1.6 6.5-2.5 9.6-1.5 6-2.8 12.2-6 17.7-2.5 4.2-5.3 8.3-8.1 12.3-.3.4-1 .8-1.5.7-.4-.1-.7-.8-.8-1.3-1.2-9.2-1.5-18.4.8-27.5 2.8-11.1 5.3-22.3 7.9-33.4.2-.7-.1-1.6-.3-2.4-1.9-5.6-2.2-11.2-.4-16.8 1-2.9 2.5-5.5 4.9-7.5 3-2.5 6.4-3.4 10.1-2.3 4.1 1.2 6.6 4.8 6.3 9.8-.3 3.6-1.2 7.3-2 10.8-1.1 4.3-2.5 8.6-3.7 12.9-2.1 7.5 3.7 13.8 11.4 13.2 4.9-.4 8.6-2.9 11.6-6.6 3.4-4.1 5.4-8.8 6.7-13.8 1.8-6.8 2.6-13.7 1.4-20.6-1.7-9.8-7.5-16-16.9-18.9-7.2-2.3-14.6-2.1-21.8.2-14.2 4.4-23.2 18.4-21.6 33.4.4 3.7 1.7 7.2 4.2 10 1.1 1.2 1.5 2.6 1 4.3-.5 1.7-.8 3.3-1.2 5-.6 2-1.9 2.8-3.9 2-5-2-8.5-5.7-10.6-10.5-5.3-12.8-4-25 3.3-36.6s17.9-17.7 31.1-20.2c6.4-1.2 12.8-1.4 19.2-.4 8.8 1.4 16.6 5 23 11.2 7.7 7.5 11.9 16.7 11.8 27.5-.1 7.6-1.2 15.2-4.2 22.3-4.4 10.7-11.5 18.9-23 22.4-5.1 1.5-10.3 2-15.4.5-3.9-1.1-7.3-3-9.8-6.3-.5-.1-.7-.3-1-.7z"/></svg>